<?xml version="1.0" standalone="no"?><!DOCTYPE svg PUBLIC "-//W3C//DTD SVG 1.1//EN" "http://www.w3.org/Graphics/SVG/1.1/DTD/svg11.dtd"><svg t="1582523388258" class="icon" viewBox="0 0 1024 1024" version="1.1" xmlns="http://www.w3.org/2000/svg" p-id="4867" xmlns:xlink="http://www.w3.org/1999/xlink" width="128" height="128"><defs><style type="text/css"></style></defs><path d="M512.1 511.9m-448 0a448 448 0 1 0 896 0 448 448 0 1 0-896 0Z" fill="#EF8200" p-id="4868"></path><path d="M843.3 813.6c-41.6-49.7-130.3-94.1-211.7-121-5.1-1.6-37-16.1-17.1-76.8h-0.3c52.1-53.6 91.9-139.9 91.9-224.9 0-130.7-86.9-199.1-187.8-199.1-101 0-187.4 68.5-187.4 199.1 0 85.3 39.6 172 92 225.5 20.4 53.6-16.1 73.4-23.7 76.2-80.9 29.2-172.6 76.9-211.2 128.6 81.6 85.4 196.6 138.7 324.1 138.7 131.2 0 249.2-56.4 331.2-146.3z" fill="#FFBA6E" p-id="4869"></path></svg>