<?xml version="1.0" standalone="no"?><!DOCTYPE svg PUBLIC "-//W3C//DTD SVG 1.1//EN" "http://www.w3.org/Graphics/SVG/1.1/DTD/svg11.dtd"><svg t="1582521325716" class="icon" viewBox="0 0 1024 1024" version="1.1" xmlns="http://www.w3.org/2000/svg" p-id="8544" width="128" height="128" xmlns:xlink="http://www.w3.org/1999/xlink"><defs><style type="text/css"></style></defs><path d="M178.3808 117.8624m-29.9008 0a29.9008 29.9008 0 1 0 59.8016 0 29.9008 29.9008 0 1 0-59.8016 0Z" fill="#1296db" p-id="8545"></path><path d="M178.3808 152.8832c-19.2512 0-35.0208-15.6672-35.0208-35.0208S159.0272 82.944 178.3808 82.944s35.0208 15.6672 35.0208 35.0208-15.7696 34.9184-35.0208 34.9184z m0-59.6992c-13.6192 0-24.7808 11.0592-24.7808 24.7808 0 13.6192 11.0592 24.7808 24.7808 24.7808 13.6192 0 24.7808-11.0592 24.7808-24.7808-0.1024-13.7216-11.1616-24.7808-24.7808-24.7808z" fill="#1296db" p-id="8546"></path><path d="M775.5776 866.2016m-23.552 0a23.552 23.552 0 1 0 47.104 0 23.552 23.552 0 1 0-47.104 0Z" fill="#1296db" p-id="8547"></path><path d="M775.5776 894.8736c-15.7696 0-28.672-12.8-28.672-28.672s12.8-28.672 28.672-28.672 28.672 12.8 28.672 28.672-12.9024 28.672-28.672 28.672z m0-47.0016c-10.1376 0-18.432 8.2944-18.432 18.432s8.2944 18.432 18.432 18.432 18.432-8.2944 18.432-18.432-8.2944-18.432-18.432-18.432z" fill="#1296db" p-id="8548"></path><path d="M846.019731 288.147845a9.4208 9.4208 0 1 0 13.95463-12.659944 9.4208 9.4208 0 1 0-13.95463 12.659944Z" fill="#1296db" p-id="8549"></path><path d="M852.992 296.3456c-3.9936 0-7.8848-1.6384-10.752-4.8128-2.6624-2.8672-3.9936-6.5536-3.7888-10.4448 0.2048-3.8912 1.8432-7.4752 4.7104-10.0352 5.9392-5.4272 15.1552-4.9152 20.5824 1.024 5.4272 5.9392 4.9152 15.1552-1.024 20.5824-2.6624 2.4576-6.144 3.6864-9.728 3.6864z m6.3488-7.5776z m-6.3488-11.264c-1.024 0-2.048 0.4096-2.8672 1.1264-0.8192 0.8192-1.3312 1.8432-1.4336 2.9696-0.1024 1.1264 0.3072 2.2528 1.1264 3.072 1.6384 1.7408 4.3008 1.9456 6.144 0.3072 1.7408-1.6384 1.9456-4.3008 0.3072-6.144-0.9216-0.9216-2.048-1.3312-3.2768-1.3312z" fill="#1296db" p-id="8550"></path><path d="M20.052433 707.678554a34.304 34.304 0 1 0 50.813055-46.09871 34.304 34.304 0 1 0-50.813055 46.09871Z" fill="#1296db" p-id="8551"></path><path d="M45.4656 724.0704h-1.9456c-10.5472-0.512-20.1728-5.12-27.2384-12.9024-14.6432-16.0768-13.4144-41.0624 2.6624-55.6032 16.0768-14.6432 41.0624-13.4144 55.6032 2.6624 14.6432 16.0768 13.4144 41.0624-2.6624 55.6032-7.2704 6.656-16.5888 10.24-26.4192 10.24z m0-68.5056c-6.9632 0-14.0288 2.4576-19.5584 7.5776-11.8784 10.752-12.8 29.2864-2.048 41.1648 5.2224 5.7344 12.3904 9.1136 20.1728 9.5232 7.7824 0.4096 15.2576-2.2528 20.992-7.5776 11.8784-10.752 12.8-29.2864 2.048-41.1648-5.7344-6.3488-13.7216-9.5232-21.6064-9.5232z" fill="#1296db" p-id="8552"></path><path d="M892.977995 795.749615a19.8656 19.8656 0 1 0 29.426068-26.695969 19.8656 19.8656 0 1 0-29.426068 26.695969Z" fill="#1296db" p-id="8553"></path><path d="M907.6736 807.424h-1.2288c-6.656-0.3072-12.8-3.2768-17.3056-8.192-4.5056-4.9152-6.7584-11.3664-6.4512-18.0224 0.3072-6.656 3.2768-12.8 8.192-17.3056 4.9152-4.5056 11.3664-6.7584 18.0224-6.4512 6.656 0.3072 12.8 3.2768 17.3056 8.192 9.216 10.24 8.4992 26.112-1.7408 35.328-4.608 4.1984-10.5472 6.4512-16.7936 6.4512z m0-39.8336c-3.6864 0-7.168 1.3312-9.9328 3.7888-2.9696 2.6624-4.608 6.2464-4.8128 10.24-0.2048 3.8912 1.1264 7.68 3.7888 10.6496 2.6624 2.9696 6.2464 4.608 10.24 4.8128 3.8912 0.2048 7.68-1.1264 10.6496-3.7888 6.0416-5.4272 6.4512-14.848 1.024-20.8896-2.6624-2.9696-6.2464-4.608-10.24-4.8128h-0.7168z" fill="#1296db" p-id="8554"></path><path d="M419.9424 233.1648l-11.264 0.8192-5.7344 9.728-4.1984-10.4448-10.9568-2.4576 8.6016-7.2704-1.024-11.264 9.5232 6.0416 10.3424-4.5056-2.6624 10.9568z" fill="#1296db" p-id="8555"></path><path d="M402.944 248.832h-0.4096c-1.9456-0.1024-3.584-1.4336-4.4032-3.1744l-3.1744-7.9872-8.3968-1.8432c-1.9456-0.4096-3.3792-1.8432-3.8912-3.7888-0.4096-1.8432 0.2048-3.8912 1.6384-5.12l6.5536-5.5296-0.8192-8.4992c-0.2048-1.9456 0.7168-3.7888 2.4576-4.8128 1.6384-1.024 3.7888-1.024 5.4272 0l7.2704 4.608 7.8848-3.3792c1.7408-0.8192 3.8912-0.512 5.3248 0.8192 1.536 1.2288 2.1504 3.2768 1.6384 5.12l-2.048 8.2944 5.632 6.4512c1.3312 1.4336 1.6384 3.4816 0.9216 5.3248s-2.4576 3.072-4.4032 3.1744l-8.6016 0.6144-4.4032 7.3728c-0.7168 1.3312-2.3552 2.3552-4.1984 2.3552z m-3.8912-20.7872l0.9216 0.2048c1.6384 0.4096 2.9696 1.536 3.584 3.072l0.3072 0.8192 0.4096-0.8192c0.8192-1.4336 2.3552-2.3552 4.096-2.4576l0.9216-0.1024-0.6144-0.7168c-1.1264-1.2288-1.536-2.9696-1.1264-4.608l0.2048-0.9216-0.8192 0.4096c-1.536 0.7168-3.2768 0.512-4.7104-0.4096l-0.7168-0.512 0.1024 0.9216c0.2048 1.6384-0.512 3.2768-1.8432 4.4032l-0.7168 0.7168z" fill="#1296db" p-id="8556"></path><path d="M1004.2368 203.776l2.9696 5.9392 6.5536 0.9216-4.8128 4.7104 1.1264 6.5536-5.8368-3.1744-5.9392 3.1744 1.1264-6.5536-4.7104-4.7104 6.5536-0.9216z" fill="#1296db" p-id="8557"></path><path d="M998.2976 227.0208c-1.024 0-2.1504-0.3072-2.9696-1.024-1.536-1.1264-2.3552-3.072-2.048-5.0176l0.7168-3.8912-2.8672-2.7648c-1.4336-1.3312-1.9456-3.3792-1.3312-5.2224 0.6144-1.8432 2.2528-3.1744 4.096-3.4816l3.8912-0.6144 1.7408-3.584c0.8192-1.7408 2.6624-2.8672 4.608-2.8672s3.6864 1.1264 4.608 2.8672l1.7408 3.584 3.8912 0.6144c1.9456 0.3072 3.4816 1.6384 4.096 3.4816 0.6144 1.8432 0.1024 3.8912-1.3312 5.2224l-2.8672 2.7648 0.7168 3.8912c0.3072 1.9456-0.4096 3.8912-2.048 5.0176-1.536 1.1264-3.6864 1.3312-5.4272 0.4096l-3.4816-1.8432-3.4816 1.8432c-0.6144 0.4096-1.4336 0.6144-2.2528 0.6144z" fill="#1296db" p-id="8558"></path><path d="M219.648 359.936c4.4032-2.2528 19.2512-10.8544 19.5584-27.3408 0.1024-5.8368-4.1984-10.8544-9.9328-11.3664-4.7104-0.4096-8.9088 2.2528-10.8544 6.144-1.9456-3.8912-6.0416-6.5536-10.8544-6.144-5.7344 0.512-10.0352 5.632-9.9328 11.3664 0.3072 16.4864 15.1552 25.1904 19.5584 27.3408 0.7168 0.4096 1.6384 0.4096 2.4576 0z" fill="#1296db" p-id="8559"></path><path d="M256.2048 911.36c3.4816-1.3312 15.2576-6.5536 15.5648-16.384 0.1024-3.4816-3.3792-6.5536-7.8848-6.8608-3.7888-0.2048-7.0656 1.3312-8.6016 3.6864-1.536-2.3552-4.8128-3.8912-8.6016-3.6864-4.608 0.3072-7.9872 3.3792-7.8848 6.8608 0.2048 9.8304 12.0832 15.0528 15.5648 16.384 0.512 0.2048 1.2288 0.2048 1.8432 0z" fill="#1296db" p-id="8560"></path><path d="M968.2944 456.3968c4.5056 1.536 20.6848 5.7344 32.256-5.3248 4.096-3.8912 4.608-10.3424 1.024-14.6432-2.9696-3.584-7.68-4.608-11.6736-3.1744 1.4336-3.9936 0.3072-8.704-3.1744-11.6736-4.3008-3.584-10.752-3.072-14.6432 1.024-11.0592 11.4688-6.8608 27.648-5.3248 32.256 0.2048 0.7168 0.8192 1.3312 1.536 1.536z" fill="#1296db" p-id="8561"></path><path d="M82.5344 865.5872a33.8944 5.5296 90 1 0 11.0592 0 33.8944 5.5296 90 1 0-11.0592 0Z" fill="#1296db" p-id="8562"></path><path d="M54.8864 864.8704a33.8944 5.5296 0 1 0 67.7888 0 33.8944 5.5296 0 1 0-67.7888 0Z" fill="#1296db" p-id="8563"></path><path d="M41.5744 304.0256a21.6064 3.584 90 1 0 7.168 0 21.6064 3.584 90 1 0-7.168 0Z" fill="#1296db" p-id="8564"></path><path d="M23.9616 303.616a21.6064 3.584 0 1 0 43.2128 0 21.6064 3.584 0 1 0-43.2128 0Z" fill="#1296db" p-id="8565"></path><path d="M858.9312 682.1888c-19.2512 0-43.4176-1.7408-72.3968-5.12-74.1376-8.704-170.8032-27.4432-272.2816-52.736-101.4784-25.3952-195.584-54.3744-265.1136-81.6128-33.9968-13.312-60.2112-25.4976-78.1312-36.2496-20.992-12.5952-29.696-22.8352-27.3408-32.1536 2.8672-11.5712 22.016-16.5888 60.3136-15.7696 33.1776 0.7168 79.872 5.8368 134.8608 15.0528 2.7648 0.512 4.7104 3.072 4.1984 5.9392-0.512 2.7648-3.072 4.7104-5.9392 4.1984-54.4768-9.0112-100.6592-14.2336-133.3248-14.848-47.3088-1.024-50.0736 7.68-50.176 7.9872-0.1024 0.3072-1.3312 6.4512 22.7328 20.8896 17.408 10.4448 43.1104 22.4256 76.5952 35.5328 69.12 27.136 162.816 55.9104 263.8848 81.2032 101.0688 25.2928 197.3248 43.9296 271.0528 52.5312 35.6352 4.1984 64 5.7344 84.2752 4.7104 27.9552-1.4336 29.7984-7.4752 29.9008-7.7824 1.4336-5.9392-22.6304-30.9248-150.3232-75.264-2.6624-0.9216-4.096-3.8912-3.1744-6.5536 0.9216-2.6624 3.8912-4.096 6.5536-3.1744 48.5376 16.896 88.4736 33.1776 115.3024 47.3088 31.1296 16.2816 44.3392 29.0816 41.5744 40.1408-2.3552 9.3184-14.848 14.2336-39.2192 15.5648-4.4032 0-9.0112 0.2048-13.824 0.2048z" fill="#1296db" p-id="8566"></path><path d="M551.5264 545.792c-16.1792 0-29.3888-13.2096-29.3888-29.3888s13.2096-29.3888 29.3888-29.3888 29.3888 13.2096 29.3888 29.3888-13.1072 29.3888-29.3888 29.3888z m0-48.64c-10.5472 0-19.1488 8.6016-19.1488 19.1488 0 10.5472 8.6016 19.1488 19.1488 19.1488 10.5472 0 19.1488-8.6016 19.1488-19.1488 0.1024-10.5472-8.6016-19.1488-19.1488-19.1488zM491.3152 738.0992c-12.6976 0-23.04-10.3424-23.04-23.04s10.3424-23.04 23.04-23.04 23.04 10.3424 23.04 23.04-10.3424 23.04-23.04 23.04z m0-35.9424c-7.0656 0-12.8 5.7344-12.8 12.8s5.7344 12.8 12.8 12.8 12.8-5.7344 12.8-12.8-5.7344-12.8-12.8-12.8z" fill="#1296db" p-id="8567"></path><path d="M533.4016 807.8336c-59.2896 0-114.8928-23.04-156.7744-64.9216-41.8816-41.8816-64.9216-97.5872-64.9216-156.7744s23.04-114.8928 64.9216-156.7744c41.8816-41.8816 97.5872-64.9216 156.7744-64.9216s114.8928 23.04 156.7744 64.9216c41.8816 41.8816 64.9216 97.5872 64.9216 156.7744S732.0576 701.0304 690.176 742.912c-41.8816 41.8816-97.5872 64.9216-156.7744 64.9216z m0-433.2544c-116.6336 0-211.5584 94.9248-211.5584 211.5584C321.8432 702.7712 416.768 797.696 533.4016 797.696c116.6336 0 211.5584-94.9248 211.5584-211.5584 0-116.736-94.9248-211.5584-211.5584-211.5584z" fill="#1296db" p-id="8568"></path></svg>