<?xml version="1.0" standalone="no"?><!DOCTYPE svg PUBLIC "-//W3C//DTD SVG 1.1//EN" "http://www.w3.org/Graphics/SVG/1.1/DTD/svg11.dtd"><svg t="1581501346040" class="icon" viewBox="0 0 1024 1024" version="1.1" xmlns="http://www.w3.org/2000/svg" p-id="2104" xmlns:xlink="http://www.w3.org/1999/xlink" width="128" height="128"><defs><style type="text/css"></style></defs><path d="M721.816145 227.245607l0 59.947324 0 510.556115c0 57.387012-46.527686 103.913675-103.913675 103.913675L226.253512 901.662721c-57.385988 0-103.912651-46.526663-103.912651-103.913675L122.340861 226.249931c0-57.393151 46.526663-103.912651 103.912651-103.912651l391.648958 0c57.385988 0 103.913675 46.5195 103.913675 103.912651L721.816145 227.245607zM721.816145 945.568696l0 16.041348 119.894647 0c66.210981 0 119.894647-53.683666 119.894647-119.894647L961.60544 362.127597c0-66.219167-53.683666-119.895671-119.894647-119.895671l-59.947324 0 0-59.947324c0-66.219167-53.683666-119.895671-119.895671-119.895671L182.288185 62.388932c-66.210981 0-119.894647 53.676503-119.894647 119.895671l0 659.430794c0 66.210981 53.683666 119.894647 119.894647 119.894647L661.867798 961.610044C683.705152 961.610044 704.180486 955.756733 721.816145 945.568696zM901.658116 797.749046c0 57.387012-46.526663 103.913675-103.912651 103.913675l-32.023344 0c10.201339-17.649985 16.041348-38.112016 16.041348-59.947324L781.763468 302.180274l15.981996 0c57.385988 0 103.912651 46.5195 103.912651 103.905488l0 1.00284L901.658116 797.749046zM242.235508 706.825221c0 16.553001 13.420661 14.987343 29.973662 14.987343l299.737642 0c16.553001 0 29.973662 1.564635 29.973662-14.987343s-13.420661-44.959981-29.973662-44.959981L272.20917 661.865239C255.656169 661.865239 242.235508 690.272219 242.235508 706.825221zM242.235508 526.983249c0 16.551978 13.420661 14.987343 29.973662 14.987343l299.737642 0c16.553001 0 29.973662 1.564635 29.973662-14.987343 0-16.553001-13.420661-44.961004-29.973662-44.961004L272.20917 482.022245C255.656169 482.022245 242.235508 510.430248 242.235508 526.983249zM242.235508 347.141278c0 16.553001 13.420661 14.987343 29.973662 14.987343l299.737642 0c16.553001 0 29.973662 1.565658 29.973662-14.987343 0-16.553001-13.420661-44.961004-29.973662-44.961004L272.20917 302.180274C255.656169 302.180274 242.235508 330.587254 242.235508 347.141278z" p-id="2105"></path></svg>